<svg xmlns="http://www.w3.org/2000/svg" width="16" height="16" viewBox="0 0 16 16"><g><g><path fill="#3d4677" d="M14.928 4.081a8.055 8.055 0 0 0-2.912-2.986A7.694 7.694 0 0 0 8-.005a7.69 7.69 0 0 0-4.016 1.1A8.05 8.05 0 0 0 1.072 4.08C.356 5.337-.002 6.708-.002 8.198c0 1.787.51 3.394 1.527 4.82 1.017 1.43 2.332 2.415 3.943 2.965.188.034.326.01.417-.075a.424.424 0 0 0 .135-.32l-.005-.578c-.004-.363-.005-.68-.005-.95l-.24.043c-.153.03-.345.04-.578.036a4.092 4.092 0 0 1-.724-.074 1.59 1.59 0 0 1-.698-.32 1.35 1.35 0 0 1-.459-.657l-.104-.246a2.681 2.681 0 0 0-.328-.544c-.15-.198-.3-.334-.453-.406l-.073-.055a.654.654 0 0 1-.136-.127.561.561 0 0 1-.093-.15c-.021-.048-.004-.088.052-.122.055-.033.156-.048.302-.048l.209.031c.138.03.31.115.515.259.205.142.373.327.505.553.16.293.353.514.579.669.225.152.453.23.682.23.23 0 .427-.019.594-.055.166-.035.322-.089.469-.162.062-.474.232-.84.51-1.098a6.943 6.943 0 0 1-1.068-.192 4.34 4.34 0 0 1-.98-.415 2.848 2.848 0 0 1-.838-.717c-.222-.284-.405-.658-.547-1.123-.142-.463-.213-.996-.213-1.6 0-.863.274-1.594.823-2.2-.257-.65-.233-1.375.072-2.18.202-.063.5-.016.896.145.397.161.686.297.87.411.184.115.332.209.443.288a7.26 7.26 0 0 1 2-.278A7.26 7.26 0 0 1 10 4.234l.396-.254c.27-.172.59-.33.958-.472.369-.141.65-.181.845-.118.312.805.34 1.532.082 2.18.55.606.824 1.337.824 2.2 0 .605-.072 1.14-.214 1.607-.142.466-.326.84-.552 1.122-.226.279-.507.517-.844.71a4.35 4.35 0 0 1-.979.416 6.85 6.85 0 0 1-1.068.192c.362.32.541.826.541 1.516v2.255c0 .128.044.234.131.32.087.085.224.11.411.075 1.612-.55 2.926-1.536 3.944-2.965C15.492 11.591 16 9.985 16 8.196c0-1.488-.358-2.86-1.073-4.115z"/></g></g></svg>