<svg xmlns="http://www.w3.org/2000/svg" width="17" height="16" viewBox="0 0 17 16"><g><g><path fill="#3d4677" d="M17 9.806v6.19h-3.644V10.22c0-1.452-.527-2.44-1.846-2.44-1.007 0-1.606.667-1.87 1.314-.095.23-.12.551-.12.872v6.03H5.875s.05-9.783 0-10.796H9.52v1.532c-.008.01-.017.022-.024.034h.024v-.034c.484-.735 1.349-1.785 3.284-1.785 2.398 0 4.196 1.542 4.196 4.86zM4.1 1.862c0 1.036-.79 1.866-2.062 1.866h-.024C.792 3.728 0 2.898 0 1.862 0 .802.815-.005 2.062-.005c1.247 0 2.014.807 2.038 1.867zM.217 5.2H3.86v10.796H.217z"/></g></g></svg>