<svg xmlns="http://www.w3.org/2000/svg" width="17" height="14" viewBox="0 0 17 14"><g><g><path fill="#3d4677" d="M16.53.255a6.947 6.947 0 0 1-2.215.858A3.455 3.455 0 0 0 11.77-.004c-1.927 0-3.488 1.584-3.488 3.535 0 .277.031.546.09.805C5.474 4.188 2.904 2.782 1.184.643c-.3.52-.472 1.128-.472 1.777 0 1.227.617 2.308 1.551 2.94a3.437 3.437 0 0 1-1.58-.442v.044c0 1.712 1.203 3.141 2.798 3.467a3.431 3.431 0 0 1-1.575.06 3.5 3.5 0 0 0 3.257 2.455A6.937 6.937 0 0 1 0 12.408a9.767 9.767 0 0 0 5.346 1.589c6.415 0 9.923-5.388 9.923-10.059l-.012-.457A7.049 7.049 0 0 0 17 1.653a6.873 6.873 0 0 1-2.003.556A3.544 3.544 0 0 0 16.531.255z"/></g></g></svg>